HIERARCHY
ROOT newVegas:Hips
{
	OFFSET 0.000000 96.479958 0.000000
	CHANNELS 6 Xposition Yposition Zposition Xrotation Yrotation Zrotation
	JOINT newVegas:Pelvis
	{
		OFFSET 0.000000 0.000000 0.000000
		CHANNELS 3 Xrotation Yrotation Zrotation
		JOINT newVegas:LeftUpLeg
		{
			OFFSET 18.735201 -5.666702 -4.541200
			CHANNELS 3 Xrotation Yrotation Zrotation
			JOINT newVegas:LeftLeg
			{
				OFFSET -0.021200 -31.938179 0.493100
				CHANNELS 3 Xrotation Yrotation Zrotation
				JOINT newVegas:LeftFoot
				{
					OFFSET 0.021200 -31.938179 -4.336299
					CHANNELS 3 Xrotation Yrotation Zrotation
					JOINT newVegas:LeftToeBase
					{
						OFFSET 0.943001 -26.722000 15.023500
						CHANNELS 3 Xrotation Yrotation Zrotation
						End Site
						{
							OFFSET 0.000000 30.670183 0.000000
						}
					}
				}
				JOINT newVegas:Left_PantLeg
				{
					OFFSET 0.663870 -9.044666 -1.108900
					CHANNELS 3 Xrotation Yrotation Zrotation
					End Site
					{
						OFFSET 1.415995 20.635357 0.000000
					}
				}
			}
		}
		JOINT newVegas:RightUpLeg
		{
			OFFSET -18.735201 -5.666702 -4.541200
			CHANNELS 3 Xrotation Yrotation Zrotation
			JOINT newVegas:RightLeg
			{
				OFFSET 0.018946 -31.938133 0.493100
				CHANNELS 3 Xrotation Yrotation Zrotation
				JOINT newVegas:RightFoot
				{
					OFFSET -0.018946 -31.938126 -4.336299
					CHANNELS 3 Xrotation Yrotation Zrotation
					JOINT newVegas:RightToeBase
					{
						OFFSET -0.943001 -26.722004 15.023500
						CHANNELS 3 Xrotation Yrotation Zrotation
						End Site
						{
							OFFSET 0.000000 30.670187 0.000000
						}
					}
				}
				JOINT newVegas:Right_PantLeg
				{
					OFFSET -0.661674 -9.044716 -1.108900
					CHANNELS 3 Xrotation Yrotation Zrotation
					End Site
					{
						OFFSET -1.415958 20.635269 0.000000
					}
				}
			}
		}
	}
	JOINT newVegas:Spine
	{
		OFFSET 0.000000 10.199997 -0.299500
		CHANNELS 3 Xrotation Yrotation Zrotation
		JOINT newVegas:Spine1
		{
			OFFSET 0.000000 11.900002 -1.516600
			CHANNELS 3 Xrotation Yrotation Zrotation
			JOINT newVegas:Spine2
			{
				OFFSET 0.000000 13.600006 -2.842500
				CHANNELS 3 Xrotation Yrotation Zrotation
				JOINT newVegas:Neck
				{
					OFFSET 0.000000 9.624100 -2.890100
					CHANNELS 3 Xrotation Yrotation Zrotation
					JOINT newVegas:Head
					{
						OFFSET 0.000000 14.068802 -1.351900
						CHANNELS 3 Xrotation Yrotation Zrotation
						JOINT newVegas:Hair_Back
						{
							OFFSET 0.000000 3.231903 -17.524799
							CHANNELS 3 Xrotation Yrotation Zrotation
							End Site
							{
								OFFSET 0.000000 19.849884 0.000000
							}
						}
						JOINT newVegas:Hair_Front
						{
							OFFSET 0.000000 31.260406 4.573800
							CHANNELS 3 Xrotation Yrotation Zrotation
							JOINT newVegas:Hair_Front1
							{
								OFFSET 0.000000 2.284103 11.993300
								CHANNELS 3 Xrotation Yrotation Zrotation
								JOINT newVegas:Hair_Front2
								{
									OFFSET 0.000000 2.284103 11.993300
									CHANNELS 3 Xrotation Yrotation Zrotation
									End Site
									{
										OFFSET 0.000000 12.208862 0.000000
									}
								}
							}
						}
						JOINT newVegas:Jowel
						{
							OFFSET 0.000000 -7.458206 6.864100
							CHANNELS 3 Xrotation Yrotation Zrotation
							End Site
							{
								OFFSET 0.000000 19.849884 0.000000
							}
						}
					}
				}
				JOINT newVegas:LeftShoulder
				{
					OFFSET 15.263000 10.923401 -0.547700
					CHANNELS 3 Xrotation Yrotation Zrotation
					JOINT newVegas:LeftArm
					{
						OFFSET 25.438599 -2.830597 -13.032500
						CHANNELS 3 Xrotation Yrotation Zrotation
						JOINT newVegas:LeftForeArm
						{
							OFFSET 29.960503 0.000000 0.000000
							CHANNELS 3 Xrotation Yrotation Zrotation
							JOINT newVegas:LeftHand
							{
								OFFSET 27.849251 0.000000 0.000000
								CHANNELS 3 Xrotation Yrotation Zrotation
								JOINT newVegas:LeftHandThumb1
								{
									OFFSET 4.487587 -3.305161 6.305391
									CHANNELS 3 Xrotation Yrotation Zrotation
									JOINT newVegas:LeftHandThumb2
									{
										OFFSET 5.480453 -3.164139 3.164143
										CHANNELS 3 Xrotation Yrotation Zrotation
										JOINT newVegas:LeftHandThumb3
										{
											OFFSET 5.159721 -2.978973 2.978967
											CHANNELS 3 Xrotation Yrotation Zrotation
											End Site
											{
												OFFSET 2.494507 5.926697 1.738678
											}
										}
									}
								}
								JOINT newVegas:LeftHandIndex1
								{
									OFFSET 18.578728 -0.527832 5.208049
									CHANNELS 3 Xrotation Yrotation Zrotation
									JOINT newVegas:LeftHandIndex2
									{
										OFFSET 3.192009 0.000000 0.000000
										CHANNELS 3 Xrotation Yrotation Zrotation
										JOINT newVegas:LeftHandIndex3
										{
											OFFSET 3.835129 0.000000 0.000000
											CHANNELS 3 Xrotation Yrotation Zrotation
											End Site
											{
												OFFSET -0.034599 3.816971 0.371180
											}
										}
									}
								}
								JOINT newVegas:LeftHandMiddle1
								{
									OFFSET 18.476105 0.000000 0.000000
									CHANNELS 3 Xrotation Yrotation Zrotation
									JOINT newVegas:LeftHandMiddle2
									{
										OFFSET 3.324875 0.000000 0.000000
										CHANNELS 3 Xrotation Yrotation Zrotation
										JOINT newVegas:LeftHandMiddle3
										{
											OFFSET 4.596550 0.000000 0.000000
											CHANNELS 3 Xrotation Yrotation Zrotation
											End Site
											{
												OFFSET 0.057701 4.578827 0.399218
											}
										}
									}
								}
								JOINT newVegas:LeftHandRing1
								{
									OFFSET 17.732719 0.121887 -4.201567
									CHANNELS 3 Xrotation Yrotation Zrotation
									JOINT newVegas:LeftHandRing2
									{
										OFFSET 2.733170 0.000000 0.000000
										CHANNELS 3 Xrotation Yrotation Zrotation
										JOINT newVegas:LeftHandRing3
										{
											OFFSET 3.178268 0.000000 0.000000
											CHANNELS 3 Xrotation Yrotation Zrotation
											End Site
											{
												OFFSET 0.119102 3.170624 0.185394
											}
										}
									}
								}
								JOINT newVegas:LeftHandPinky1
								{
									OFFSET 15.989624 -0.606689 -7.535461
									CHANNELS 3 Xrotation Yrotation Zrotation
									JOINT newVegas:LeftHandPinky2
									{
										OFFSET 2.538986 0.000000 0.000000
										CHANNELS 3 Xrotation Yrotation Zrotation
										JOINT newVegas:LeftHandPinky3
										{
											OFFSET 2.593102 0.000000 0.000000
											CHANNELS 3 Xrotation Yrotation Zrotation
											End Site
											{
												OFFSET -0.150902 2.584198 0.152708
											}
										}
									}
								}
							}
							JOINT newVegas:Left_Sleeve
							{
								OFFSET 0.267448 -0.649796 0.577675
								CHANNELS 3 Xrotation Yrotation Zrotation
								End Site
								{
									OFFSET 0.000000 15.991241 0.000000
								}
							}
							JOINT newVegas:Left_CapeC
							{
								OFFSET 15.715958 -8.608795 -6.935905
								CHANNELS 3 Xrotation Yrotation Zrotation
								JOINT newVegas:Left_CapeC1
								{
									OFFSET 0.000000 -8.688499 0.000000
									CHANNELS 3 Xrotation Yrotation Zrotation
									End Site
									{
										OFFSET 0.000000 8.688499 0.000000
									}
								}
							}
						}
						JOINT newVegas:Left_CapeB
						{
							OFFSET 26.118385 -8.608795 -7.079235
							CHANNELS 3 Xrotation Yrotation Zrotation
							JOINT newVegas:Left_CapeB1
							{
								OFFSET 0.000000 -8.688499 0.000000
								CHANNELS 3 Xrotation Yrotation Zrotation
								End Site
								{
									OFFSET 0.000000 8.688499 0.000000
								}
							}
						}
						JOINT newVegas:Left_CapeA
						{
							OFFSET 5.115639 -8.608795 -10.395809
							CHANNELS 3 Xrotation Yrotation Zrotation
							JOINT newVegas:Left_CapeA1
							{
								OFFSET 0.000000 -8.688499 0.000000
								CHANNELS 3 Xrotation Yrotation Zrotation
								End Site
								{
									OFFSET 0.000000 8.688499 0.000000
								}
							}
						}
					}
				}
				JOINT newVegas:RightShoulder
				{
					OFFSET -15.263000 10.923401 -0.547700
					CHANNELS 3 Xrotation Yrotation Zrotation
					JOINT newVegas:RightArm
					{
						OFFSET -25.438599 -2.830597 -13.032500
						CHANNELS 3 Xrotation Yrotation Zrotation
						JOINT newVegas:RightForeArm
						{
							OFFSET -29.960503 0.000000 0.000000
							CHANNELS 3 Xrotation Yrotation Zrotation
							JOINT newVegas:RightHand
							{
								OFFSET -27.849251 0.000000 0.000000
								CHANNELS 3 Xrotation Yrotation Zrotation
								JOINT newVegas:RightHandThumb1
								{
									OFFSET -4.487587 -3.305161 6.305391
									CHANNELS 3 Xrotation Yrotation Zrotation
									JOINT newVegas:RightHandThumb2
									{
										OFFSET -5.480453 -3.164139 3.164143
										CHANNELS 3 Xrotation Yrotation Zrotation
										JOINT newVegas:RightHandThumb3
										{
											OFFSET -5.159721 -2.978973 2.978967
											CHANNELS 3 Xrotation Yrotation Zrotation
											End Site
											{
												OFFSET -2.494507 5.926697 1.738678
											}
										}
									}
								}
								JOINT newVegas:RightHandIndex1
								{
									OFFSET -18.578728 -0.527832 5.208049
									CHANNELS 3 Xrotation Yrotation Zrotation
									JOINT newVegas:RightHandIndex2
									{
										OFFSET -3.192009 0.000000 0.000000
										CHANNELS 3 Xrotation Yrotation Zrotation
										JOINT newVegas:RightHandIndex3
										{
											OFFSET -3.835129 0.000000 0.000000
											CHANNELS 3 Xrotation Yrotation Zrotation
											End Site
											{
												OFFSET 0.034599 3.816971 0.371180
											}
										}
									}
								}
								JOINT newVegas:RightHandMiddle1
								{
									OFFSET -18.476105 0.000000 0.000000
									CHANNELS 3 Xrotation Yrotation Zrotation
									JOINT newVegas:RightHandMiddle2
									{
										OFFSET -3.324875 0.000000 0.000000
										CHANNELS 3 Xrotation Yrotation Zrotation
										JOINT newVegas:RightHandMiddle3
										{
											OFFSET -4.596550 0.000000 0.000000
											CHANNELS 3 Xrotation Yrotation Zrotation
											End Site
											{
												OFFSET -0.057701 4.578827 0.399218
											}
										}
									}
								}
								JOINT newVegas:RightHandRing1
								{
									OFFSET -17.732719 0.121887 -4.201567
									CHANNELS 3 Xrotation Yrotation Zrotation
									JOINT newVegas:RightHandRing2
									{
										OFFSET -2.733170 0.000000 0.000000
										CHANNELS 3 Xrotation Yrotation Zrotation
										JOINT newVegas:RightHandRing3
										{
											OFFSET -3.178268 0.000000 0.000000
											CHANNELS 3 Xrotation Yrotation Zrotation
											End Site
											{
												OFFSET -0.119102 3.170624 0.185394
											}
										}
									}
								}
								JOINT newVegas:RightHandPinky1
								{
									OFFSET -15.989624 -0.606689 -7.535461
									CHANNELS 3 Xrotation Yrotation Zrotation
									JOINT newVegas:RightHandPinky2
									{
										OFFSET -2.538986 0.000000 0.000000
										CHANNELS 3 Xrotation Yrotation Zrotation
										JOINT newVegas:RightHandPinky3
										{
											OFFSET -2.593102 0.000000 0.000000
											CHANNELS 3 Xrotation Yrotation Zrotation
											End Site
											{
												OFFSET 0.150902 2.584198 0.152708
											}
										}
									}
								}
							}
							JOINT newVegas:Right_CapeC
							{
								OFFSET -15.715958 -8.608795 -6.935905
								CHANNELS 3 Xrotation Yrotation Zrotation
								JOINT newVegas:Right_CapeC1
								{
									OFFSET 0.000000 -8.688499 0.000000
									CHANNELS 3 Xrotation Yrotation Zrotation
									End Site
									{
										OFFSET 0.000000 8.688499 0.000000
									}
								}
							}
							JOINT newVegas:Right_Sleeve
							{
								OFFSET -0.267448 -0.649994 0.577675
								CHANNELS 3 Xrotation Yrotation Zrotation
								End Site
								{
									OFFSET 0.000000 15.991302 0.000000
								}
							}
						}
						JOINT newVegas:Right_CapeA
						{
							OFFSET -5.115540 -8.608795 -10.395824
							CHANNELS 3 Xrotation Yrotation Zrotation
							JOINT newVegas:Right_CapeA1
							{
								OFFSET 0.000000 -8.688499 0.000000
								CHANNELS 3 Xrotation Yrotation Zrotation
								End Site
								{
									OFFSET 0.000000 8.688499 0.000000
								}
							}
						}
						JOINT newVegas:Right_CapeB
						{
							OFFSET -26.118187 -8.608795 -7.079266
							CHANNELS 3 Xrotation Yrotation Zrotation
							JOINT newVegas:Right_CapeB1
							{
								OFFSET 0.000000 -8.688499 0.000000
								CHANNELS 3 Xrotation Yrotation Zrotation
								End Site
								{
									OFFSET 0.000000 8.688499 0.000000
								}
							}
						}
					}
				}
				JOINT newVegas:Left_Collar
				{
					OFFSET 18.625099 8.655502 8.828100
					CHANNELS 3 Xrotation Yrotation Zrotation
					JOINT newVegas:Left_Collar1
					{
						OFFSET 14.783401 10.540405 -1.259500
						CHANNELS 3 Xrotation Yrotation Zrotation
						End Site
						{
							OFFSET 0.000000 18.199875 0.000000
						}
					}
				}
				JOINT newVegas:Collar_Back
				{
					OFFSET 0.000000 15.630707 -20.132601
					CHANNELS 3 Xrotation Yrotation Zrotation
					End Site
					{
						OFFSET 0.000000 22.523010 0.000000
					}
				}
				JOINT newVegas:Left_Peck
				{
					OFFSET 17.239599 -5.132599 25.482599
					CHANNELS 3 Xrotation Yrotation Zrotation
					End Site
					{
						OFFSET 0.000000 22.523010 0.000000
					}
				}
				JOINT newVegas:Right_Peck
				{
					OFFSET -17.239599 -5.132202 25.482599
					CHANNELS 3 Xrotation Yrotation Zrotation
					End Site
					{
						OFFSET 0.000000 22.523010 0.000000
					}
				}
				JOINT newVegas:Right_Collar
				{
					OFFSET -18.625099 8.655792 8.828100
					CHANNELS 3 Xrotation Yrotation Zrotation
					JOINT newVegas:Right_Collar1
					{
						OFFSET -14.783401 10.539993 -1.259500
						CHANNELS 3 Xrotation Yrotation Zrotation
						End Site
						{
							OFFSET 0.000000 18.199631 0.000000
						}
					}
				}
			}
		}
		JOINT newVegas:Belly
		{
			OFFSET 0.000000 -6.540398 9.014299
			CHANNELS 3 Xrotation Yrotation Zrotation
			End Site
			{
				OFFSET 0.000000 11.566666 0.000000
			}
		}
	}
	JOINT newVegas:ElvisFacialAnim_Joint
	{
		OFFSET 1.000000 -95.330101 -8.825800
		CHANNELS 3 Xrotation Yrotation Zrotation
		End Site
		{
			OFFSET 0.000000 35.315800 0.000000
		}
	}
}
MOTION
Frames: 4
Frame Time: 0.016667
-4.948050 36.550949 80.180847 20.487994 -24.188842 -5.711548 -0.000001 -0.000001 -0.000001 -9.596728 1.244678 3.571693 90.572885 -18.733995 -2.284146 31.661202 -7.096714 -33.328888 0.000000 0.000000 0.000000 0.000001 0.000000 -0.000001 -7.331932 16.226359 -8.026491 60.705103 14.702080 -13.841201 58.063513 11.436251 24.302462 -0.000003 0.000001 -0.000001 0.000001 0.000001 -0.000002 5.370092 0.332008 0.738892 -5.387903 1.463347 2.228127 -5.408687 1.438965 2.129568 -12.786612 1.552102 2.681393 -12.786620 1.552104 2.681400 0.000001 -0.000001 -0.000000 -12.786529 1.552110 2.681392 -12.786573 1.552108 2.681391 0.000001 0.000001 0.000000 0.000001 -0.000001 -0.000000 -18.927007 2.423272 -16.209297 6.399252 13.475594 -49.024038 73.253321 -19.968937 30.111391 -15.140998 22.562572 -4.718127 -0.610174 -6.200729 8.854775 3.159778 21.613959 -1.887060 0.000001 -0.000002 -0.000003 13.340407 -1.006130 10.837311 -0.167769 0.303291 -30.950548 -0.000001 0.000001 0.000000 8.497909 -0.331023 -0.760252 0.230678 0.660639 -29.746847 0.000001 0.000001 -0.000002 6.113367 3.149156 -16.056031 0.047036 0.321378 -29.970402 0.000002 -0.000002 -0.000001 -5.635371 7.708980 -13.723665 0.223792 0.276071 -46.433286 -0.000001 -0.000002 0.000004 -0.000000 0.000000 0.000003 -0.000000 0.000000 0.000003 -0.000000 -0.000000 0.000003 0.000000 -0.000002 -0.000001 0.000001 -0.000002 -0.000001 0.000000 -0.000002 -0.000001 0.000001 -0.000002 -0.000001 -18.645064 3.158385 16.723942 7.365360 -4.012499 58.411662 156.201918 144.055793 -156.460714 58.447124 -8.915766 -6.382665 0.630121 8.367609 -11.244493 -0.724229 -13.326709 3.592235 -0.000000 -0.000003 -0.000001 19.441951 11.173331 -14.416320 -0.119649 -0.321765 16.959146 0.000000 -0.000000 -0.000002 4.337927 2.446810 -5.888739 0.343346 -0.457174 25.813804 0.000002 0.000000 -0.000001 -6.996699 -10.686240 4.645087 0.112038 -0.082031 25.079432 0.000003 0.000004 -0.000001 -19.430150 -20.234239 4.912567 0.220280 -0.081654 35.768137 0.000001 0.000002 -0.000000 0.000001 0.000003 -0.000001 0.000001 0.000001 -0.000002 0.000001 0.000003 -0.000000 -0.000003 0.000000 0.000001 -0.000002 0.000000 0.000003 -0.000003 0.000000 0.000001 -0.000002 0.000000 0.000003 0.000001 -0.000001 -0.000000 0.000001 -0.000001 -0.000000 0.000001 -0.000001 -0.000000 0.000001 -0.000001 -0.000000 0.000001 -0.000001 -0.000000 0.000001 -0.000001 -0.000000 0.000001 -0.000001 -0.000000 -0.000001 -0.000001 -0.000000 -0.000001 -0.000001 -0.000001 
-4.853350 36.402939 81.143555 21.532375 -24.337193 -5.719645 -0.000001 0.000000 0.000000 -9.160727 0.777081 2.897737 89.080509 -18.172919 -2.103709 31.962031 -7.185877 -33.266348 -0.000001 -0.000001 -0.000001 -0.000000 0.000001 0.000001 -7.356125 15.647400 -7.930796 60.328124 15.099600 -13.585272 57.221317 11.336552 24.543096 -0.000000 0.000001 0.000001 0.000000 0.000000 -0.000002 5.325473 0.328865 0.842563 -5.487564 1.423595 2.351743 -5.507080 1.408917 2.254501 -13.009726 1.567685 2.720214 -13.009721 1.567671 2.720206 0.000000 -0.000001 -0.000000 -13.009665 1.567681 2.720208 -13.009773 1.567661 2.720211 0.000001 0.000001 0.000000 0.000000 -0.000001 -0.000000 -19.123847 2.643941 -15.817984 8.811192 13.503270 -48.194744 72.720095 -20.634398 30.098704 -17.435791 22.649343 -4.324305 -0.741602 -6.712986 8.749661 2.927764 21.139803 -1.929418 0.000003 0.000000 -0.000004 13.336291 -1.001479 12.126832 -0.169179 0.302505 -29.660964 -0.000002 0.000001 0.000001 8.519032 -0.343223 0.529219 0.223464 0.656142 -28.457170 -0.000002 -0.000000 -0.000001 6.127095 3.134672 -14.767289 0.046575 0.312735 -28.680883 -0.000001 -0.000001 0.000001 -5.629738 7.701566 -12.434843 0.218844 0.271825 -45.143729 -0.000005 -0.000002 0.000004 -0.000000 0.000000 -0.000000 -0.000000 0.000000 -0.000000 -0.000000 0.000000 0.000000 0.000001 -0.000001 0.000001 0.000002 -0.000002 0.000001 0.000001 -0.000001 0.000001 0.000001 -0.000002 0.000001 -18.793156 2.934423 16.971145 7.755224 -2.903529 58.461324 155.010119 141.216251 -155.160615 55.970200 -10.115531 -6.424032 0.621914 8.403522 -11.236678 -0.945203 -12.892608 3.661389 -0.000002 -0.000004 0.000002 19.440153 11.172204 -15.590170 -0.120688 -0.320683 15.784919 0.000002 -0.000000 0.000002 4.357212 2.457268 -7.063560 0.337129 -0.452626 24.639598 0.000002 -0.000000 0.000004 -6.986736 -10.676692 3.472847 0.112289 -0.074161 23.905256 -0.000001 0.000001 0.000001 -19.426356 -20.229986 3.739683 0.216545 -0.077052 34.593925 0.000001 -0.000002 -0.000000 -0.000001 0.000001 0.000001 -0.000001 0.000001 0.000000 -0.000001 0.000001 0.000000 -0.000000 0.000000 0.000000 -0.000000 -0.000001 -0.000000 -0.000000 0.000000 0.000000 -0.000000 -0.000001 0.000002 -0.000001 -0.000002 0.000000 -0.000001 -0.000002 0.000000 -0.000001 -0.000002 0.000000 -0.000001 -0.000002 0.000000 -0.000001 -0.000002 0.000000 -0.000001 -0.000002 0.000000 -0.000001 -0.000002 0.000000 -0.000001 -0.000001 0.000001 -0.000001 0.000000 0.000000 
-4.871151 36.177849 81.974922 22.622770 -24.463871 -5.608365 -0.000000 0.000000 -0.000000 -8.940878 0.101336 2.284133 87.985438 -17.361719 -1.869458 32.019288 -7.195663 -33.192967 -0.000001 0.000000 -0.000001 -0.000001 -0.000002 -0.000001 -7.004426 15.166894 -8.060719 59.275305 15.189741 -13.275054 57.684397 11.530415 24.702772 -0.000002 0.000001 0.000002 -0.000000 -0.000000 -0.000001 5.289241 0.374956 0.840426 -5.579765 1.386650 2.467673 -5.597971 1.382303 2.371569 -13.245648 1.577957 2.746366 -13.245648 1.577960 2.746365 -0.000000 0.000001 0.000000 -13.245600 1.577961 2.746368 -13.245637 1.577965 2.746367 0.000002 0.000000 0.000000 -0.000000 0.000001 0.000000 -19.324734 2.867692 -15.372847 11.222558 12.997948 -47.136085 70.495871 -22.628987 28.974475 -19.002128 22.383122 -3.511829 -0.855961 -7.156653 8.657848 2.728058 20.728664 -1.967479 0.000001 0.000000 -0.000003 13.332680 -0.997547 13.243806 -0.170377 0.301684 -28.543915 0.000000 -0.000000 0.000000 8.537472 -0.353314 1.646221 0.217325 0.652124 -27.340050 -0.000001 -0.000000 -0.000001 6.139199 3.122410 -13.651077 0.046411 0.305276 -27.563782 -0.000002 -0.000001 0.000003 -5.624725 7.695236 -11.318510 0.214609 0.268136 -44.026600 0.000001 -0.000002 0.000001 0.000000 0.000000 0.000003 0.000000 0.000000 0.000003 0.000000 0.000000 0.000003 0.000000 -0.000001 -0.000001 0.000001 -0.000001 -0.000001 0.000000 -0.000001 -0.000001 -0.000000 -0.000001 -0.000001 -18.954772 2.720315 17.238101 8.007429 -1.543121 58.368993 156.553250 137.723579 -156.028910 51.277550 -11.257157 -6.118195 0.614074 8.437615 -11.229185 -1.155332 -12.479946 3.728711 -0.000001 -0.000001 0.000001 19.438409 11.171117 -16.706472 -0.121714 -0.319651 14.668275 -0.000000 0.000001 0.000002 4.375715 2.466766 -8.180838 0.331315 -0.448173 23.522950 -0.000000 -0.000000 0.000001 -6.977119 -10.667862 2.358084 0.112697 -0.066683 22.788641 0.000000 0.000001 -0.000001 -19.422664 -20.226026 2.624334 0.213067 -0.072634 33.477295 0.000000 -0.000000 -0.000000 -0.000002 0.000004 -0.000000 -0.000001 0.000004 -0.000001 -0.000002 0.000004 0.000001 0.000001 -0.000001 0.000002 0.000002 0.000000 0.000002 0.000001 -0.000001 0.000002 0.000002 0.000000 0.000002 0.000001 -0.000000 0.000001 0.000001 -0.000000 0.000001 0.000001 -0.000000 0.000001 0.000001 -0.000000 0.000001 0.000001 -0.000000 0.000001 0.000001 -0.000000 0.000001 0.000001 -0.000000 0.000001 0.000002 0.000000 0.000000 -0.000000 0.000000 -0.000000 
-4.896102 35.903473 82.844635 23.762817 -24.521069 -5.462671 0.000001 -0.000000 -0.000001 -8.674876 -0.762133 1.579565 86.838629 -16.254891 -1.553640 32.016027 -7.220925 -33.273670 -0.000000 -0.000001 -0.000001 0.000002 -0.000001 0.000002 -6.538913 14.699342 -8.274521 58.063329 14.985244 -12.936831 58.674658 11.734992 24.586326 0.000001 0.000001 0.000000 0.000000 0.000000 -0.000002 5.262842 0.434295 0.810654 -5.663057 1.353729 2.575409 -5.679923 1.360148 2.479899 -13.490618 1.586394 2.763110 -13.490619 1.586398 2.763110 -0.000000 0.000000 -0.000000 -13.490573 1.586387 2.763109 -13.490655 1.586410 2.763104 -0.000001 -0.000001 -0.000001 -0.000000 0.000000 -0.000000 -19.520754 3.090940 -14.887415 13.533068 12.286160 -45.847327 67.504693 -25.443312 27.159216 -20.419568 21.822096 -2.446594 -0.950515 -7.516244 8.582057 2.566202 20.394929 -1.999382 0.000001 0.000002 -0.000001 13.329673 -0.994403 14.150502 -0.171359 0.301049 -27.637162 0.000002 -0.000001 -0.000001 8.552602 -0.361265 2.552879 0.212470 0.648780 -26.433242 0.000002 0.000000 -0.000001 6.149239 3.112633 -12.744917 0.046346 0.299225 -26.657030 -0.000001 0.000001 0.000002 -5.620585 7.690177 -10.412292 0.211227 0.265060 -43.119845 -0.000004 0.000000 -0.000002 -0.000000 0.000001 -0.000001 -0.000000 0.000001 -0.000001 -0.000000 0.000001 -0.000001 0.000001 0.000000 0.000000 0.000001 0.000001 0.000000 0.000001 0.000000 0.000000 0.000001 -0.000000 0.000001 -19.127499 2.546787 17.483029 8.238802 -0.098712 58.067994 160.341764 133.889821 -158.935702 44.865460 -12.163806 -5.670163 0.606831 8.469560 -11.222013 -1.352376 -12.093388 3.793185 0.000002 -0.000000 -0.000001 19.436767 11.170177 -17.752874 -0.122618 -0.318692 13.621606 0.000001 0.000002 -0.000001 4.393242 2.475376 -9.228065 0.325899 -0.443936 22.476232 -0.000003 -0.000002 0.000004 -6.967923 -10.659763 1.313161 0.113206 -0.059659 21.741926 -0.000000 0.000002 -0.000002 -19.419177 -20.222360 1.578870 0.209899 -0.068435 32.430630 0.000001 0.000003 -0.000000 -0.000001 0.000000 -0.000001 -0.000000 -0.000001 -0.000003 -0.000001 0.000000 -0.000001 0.000001 0.000001 -0.000000 0.000001 0.000001 -0.000000 0.000001 0.000001 -0.000000 0.000001 0.000001 -0.000000 -0.000001 0.000001 -0.000001 -0.000001 0.000001 -0.000001 -0.000001 0.000001 -0.000001 -0.000001 0.000001 -0.000001 -0.000001 0.000001 -0.000001 -0.000001 0.000001 -0.000001 -0.000001 0.000001 -0.000001 0.000001 -0.000000 -0.000000 0.000001 -0.000000 -0.000001 
